<svg width="12" height="12" viewBox="0 0 12 12" fill="none" xmlns="http://www.w3.org/2000/svg">
  <path d="M4.05544 1.21739C4.36673 0.321829 5.63327 0.321828 5.94456 1.21739L6.41733 2.57747C6.55465 2.97254 6.92334 3.24041 7.34152 3.24893L8.78112 3.27827C9.72905 3.29758 10.1204 4.50213 9.36489 5.07493L8.21747 5.94485C7.88417 6.19753 7.74335 6.63096 7.86446 7.03129L8.28142 8.4095C8.55598 9.317 7.53133 10.0615 6.75309 9.51991L5.57118 8.69746C5.22786 8.45856 4.77214 8.45856 4.42882 8.69746L3.24691 9.51991C2.46867 10.0615 1.44402 9.317 1.71858 8.40951L2.13554 7.03129C2.25665 6.63096 2.11583 6.19753 1.78253 5.94485L0.635109 5.07493C-0.120424 4.50213 0.270956 3.29758 1.21888 3.27827L2.65848 3.24893C3.07665 3.24041 3.44535 2.97254 3.58267 2.57747L4.05544 1.21739Z" fill="#333333"/>
</svg>
