<svg width="143" height="31" viewBox="0 0 143 31" fill="none" xmlns="http://www.w3.org/2000/svg">
<path d="M0.56 2.62981C0.88 2.64981 1.28 2.66981 1.76 2.68981C2.26 2.68981 2.78 2.69981 3.32 2.71981C3.88 2.71981 4.4 2.71981 4.88 2.71981C5.38 2.71981 5.78 2.71981 6.08 2.71981V18.6198C6.08 19.3798 6.15 19.9698 6.29 20.3898C6.43 20.8098 6.7 21.0998 7.1 21.2598C7.5 21.4198 8.05 21.4998 8.75 21.4998L8.57 22.9998C8.01 22.9998 7.35 22.9998 6.59 22.9998C5.85 22.9998 5.08 22.9998 4.28 22.9998C3.5 23.0198 2.78 23.0298 2.12 23.0298C1.46 23.0498 0.94 23.0698 0.56 23.0898C0.56 22.7898 0.57 22.5198 0.59 22.2798C0.61 22.0198 0.65 21.8098 0.710001 21.6498C1.25 21.6098 1.67 21.5098 1.97 21.3498C2.27 21.1698 2.48 20.8698 2.6 20.4498C2.72 20.0298 2.78 19.4198 2.78 18.6198V6.79981C2.78 6.07981 2.72 5.53981 2.6 5.17981C2.48 4.79981 2.27 4.52981 1.97 4.36981C1.67 4.20981 1.25 4.10981 0.710001 4.06981C0.65 3.88981 0.61 3.66981 0.59 3.40981C0.57 3.14981 0.56 2.88982 0.56 2.62981ZM14.54 17.6898C14.9 17.7698 15.2 17.8698 15.44 17.9898C15.7 18.1098 15.93 18.2598 16.13 18.4398C15.91 19.1198 15.72 19.8798 15.56 20.7198C15.42 21.5398 15.3 22.3198 15.2 23.0598C14.78 23.0398 14.22 23.0298 13.52 23.0298C12.84 23.0298 12.07 23.0198 11.21 22.9998C10.37 22.9998 9.49 22.9998 8.57 22.9998L8.75 21.4998H8.99C10.31 21.4998 11.31 21.3598 11.99 21.0798C12.69 20.7798 13.22 20.3498 13.58 19.7898C13.94 19.2298 14.26 18.5298 14.54 17.6898ZM12.5 9.46981C12.48 9.96981 12.46 10.5098 12.44 11.0898C12.44 11.6498 12.44 12.2098 12.44 12.7698C12.44 13.3498 12.44 13.9498 12.44 14.5698C12.46 15.1898 12.48 15.7598 12.5 16.2798C12.2 16.2798 11.92 16.2698 11.66 16.2498C11.42 16.2098 11.18 16.1598 10.94 16.0998C10.86 15.0998 10.59 14.4198 10.13 14.0598C9.69 13.6998 8.88 13.5198 7.7 13.5198H5.6V12.0798H7.7C8.9 12.0798 9.72 11.9198 10.16 11.5998C10.62 11.2798 10.86 10.6498 10.88 9.70982C11.16 9.60982 11.43 9.54982 11.69 9.52981C11.95 9.48981 12.22 9.46981 12.5 9.46981ZM14.45 2.62981C14.49 3.06982 14.54 3.58982 14.6 4.18981C14.66 4.78982 14.73 5.37982 14.81 5.95982C14.89 6.51981 14.98 7.01981 15.08 7.45982C14.9 7.59981 14.67 7.69981 14.39 7.75981C14.13 7.81982 13.83 7.84982 13.49 7.84982C13.43 7.20982 13.26 6.60982 12.98 6.04982C12.7 5.46981 12.22 4.99981 11.54 4.63981C10.88 4.25981 9.93 4.06981 8.69 4.06981H5.36L6.05 2.71981C7.61 2.71981 8.95 2.71981 10.07 2.71981C11.19 2.69981 12.11 2.67981 12.83 2.65981C13.55 2.63981 14.09 2.62981 14.45 2.62981Z" fill="#121B37"/>
<path d="M24.302 8.98981C24.842 8.98981 25.322 9.03982 25.742 9.13982C26.162 9.21981 26.612 9.33981 27.092 9.49981V11.9298C26.692 11.5098 26.272 11.1698 25.832 10.9098C25.392 10.6298 24.842 10.4898 24.182 10.4898C23.762 10.4898 23.312 10.5698 22.832 10.7298C22.372 10.8898 21.922 11.1798 21.482 11.5998C21.042 11.9998 20.682 12.5798 20.402 13.3398C20.142 14.0798 20.012 15.0498 20.012 16.2498C20.012 17.4298 20.182 18.3798 20.522 19.0998C20.862 19.8198 21.272 20.3598 21.752 20.7198C22.252 21.0598 22.732 21.2298 23.192 21.2298C23.772 21.2298 24.322 21.0498 24.842 20.6898C25.382 20.3298 25.822 19.7498 26.162 18.9498C26.522 18.1298 26.702 17.0398 26.702 15.6798L27.662 18.8298C27.382 19.5098 27.132 20.0398 26.912 20.4198C26.692 20.7798 26.512 21.0398 26.372 21.1998C26.172 21.4998 25.872 21.8098 25.472 22.1298C25.092 22.4298 24.632 22.6998 24.092 22.9398C23.552 23.1598 22.952 23.2698 22.292 23.2698C21.132 23.2698 20.122 23.0398 19.262 22.5798C18.422 22.1198 17.762 21.4098 17.282 20.4498C16.822 19.4698 16.592 18.2198 16.592 16.6998C16.592 15.2598 16.912 13.9598 17.552 12.7998C18.192 11.6398 19.092 10.7198 20.252 10.0398C21.412 9.33982 22.762 8.98981 24.302 8.98981ZM29.852 18.6498C29.852 19.1498 29.892 19.5598 29.972 19.8798C30.052 20.1998 30.222 20.4298 30.482 20.5698C30.762 20.7098 31.162 20.7798 31.682 20.7798C31.702 21.0198 31.692 21.2798 31.652 21.5598C31.632 21.8398 31.572 22.0998 31.472 22.3398C30.912 22.3598 30.282 22.4498 29.582 22.6098C28.882 22.7698 28.272 22.9898 27.752 23.2698C27.512 23.1698 27.312 23.0198 27.152 22.8198C27.012 22.5998 26.942 22.1698 26.942 21.5298C26.942 21.1298 26.982 20.7698 27.062 20.4498C27.142 20.1098 27.252 19.5998 27.392 18.9198L29.852 18.6498ZM29.852 5.77982V19.1598H26.702V5.77982H29.852ZM29.132 1.48982C29.332 1.56981 29.502 1.70981 29.642 1.90982C29.782 2.10982 29.852 2.40981 29.852 2.80981V6.85981H26.702V5.92982C26.702 5.44981 26.652 5.05981 26.552 4.75981C26.452 4.43981 26.242 4.19981 25.922 4.03981C25.602 3.87981 25.112 3.79981 24.452 3.79981C24.452 3.55981 24.472 3.32981 24.512 3.10981C24.552 2.88981 24.622 2.68981 24.722 2.50981C25.142 2.50981 25.642 2.45981 26.222 2.35981C26.822 2.25981 27.392 2.12981 27.932 1.96981C28.492 1.80981 28.892 1.64981 29.132 1.48982Z" fill="#121B37"/>
<path d="M37.7764 23.1198C36.3964 23.1198 35.3164 22.7298 34.5364 21.9498C33.7764 21.1698 33.3964 19.7698 33.3964 17.7498V13.5198C33.3964 12.7598 33.2964 12.2098 33.0964 11.8698C32.8964 11.5098 32.3464 11.3198 31.4464 11.2998C31.4464 11.0598 31.4564 10.8398 31.4764 10.6398C31.5164 10.4198 31.5864 10.2098 31.6864 10.0098C32.4264 9.96981 33.1864 9.84981 33.9664 9.64981C34.7664 9.44981 35.3964 9.22981 35.8564 8.98981C36.0564 9.06981 36.2264 9.20981 36.3664 9.40981C36.5064 9.60981 36.5764 9.93981 36.5764 10.3998V17.0598C36.5764 18.3998 36.7464 19.4098 37.0864 20.0898C37.4264 20.7698 38.0264 21.1098 38.8864 21.1098C39.8264 21.1098 40.6164 20.6998 41.2564 19.8798C41.8964 19.0598 42.2164 17.7898 42.2164 16.0698V13.3698C42.2164 12.6098 42.0864 12.0598 41.8264 11.7198C41.5864 11.3598 40.9764 11.1698 39.9964 11.1498C39.9964 10.9098 40.0064 10.6898 40.0264 10.4898C40.0464 10.2698 40.1164 10.0598 40.2364 9.85981C41.1164 9.81981 41.9564 9.71982 42.7564 9.55982C43.5764 9.37982 44.2164 9.18981 44.6764 8.98981C44.8764 9.06981 45.0464 9.20981 45.1864 9.40981C45.3264 9.60981 45.3964 9.93981 45.3964 10.3998V19.0098L42.6364 20.1198C42.5364 20.3998 42.3964 20.6698 42.2164 20.9298C42.0364 21.1898 41.8264 21.4298 41.5864 21.6498C41.0864 22.1298 40.5364 22.4998 39.9364 22.7598C39.3364 22.9998 38.6164 23.1198 37.7764 23.1198ZM43.2964 23.2698C43.0564 23.1698 42.8564 23.0198 42.6964 22.8198C42.5564 22.5998 42.4864 22.1698 42.4864 21.5298C42.4864 21.2898 42.5064 20.9698 42.5464 20.5698C42.5864 20.1498 42.6664 19.6198 42.7864 18.9798L45.3964 18.6498C45.3964 19.1498 45.4364 19.5598 45.5164 19.8798C45.5964 20.1998 45.7664 20.4298 46.0264 20.5698C46.2864 20.7098 46.6864 20.7798 47.2264 20.7798C47.2264 21.0198 47.2164 21.2798 47.1964 21.5598C47.1764 21.8398 47.1164 22.0998 47.0164 22.3398C46.4564 22.3598 45.8264 22.4498 45.1264 22.6098C44.4264 22.7698 43.8164 22.9898 43.2964 23.2698Z" fill="#121B37"/>
<path d="M51.7602 20.3298C52.1402 20.7498 52.5502 21.0998 52.9902 21.3798C53.4502 21.6398 54.0102 21.7698 54.6702 21.7698C55.0902 21.7698 55.5302 21.6898 55.9902 21.5298C56.4702 21.3698 56.9302 21.0798 57.3702 20.6598C57.8102 20.2398 58.1602 19.6598 58.4202 18.9198C58.7002 18.1798 58.8402 17.2098 58.8402 16.0098C58.8402 14.8298 58.6702 13.8798 58.3302 13.1598C57.9902 12.4398 57.5702 11.9098 57.0702 11.5698C56.5902 11.2098 56.1102 11.0298 55.6302 11.0298C55.0702 11.0298 54.5202 11.2098 53.9802 11.5698C53.4602 11.9298 53.0202 12.5198 52.6602 13.3398C52.3202 14.1398 52.1502 15.2198 52.1502 16.5798V21.2598L51.7602 20.3298ZM54.5502 23.2698C53.6302 23.2698 52.7702 23.1798 51.9702 22.9998C51.1702 22.8198 50.4602 22.5798 49.8402 22.2798C49.2402 21.9598 48.7302 21.5998 48.3102 21.1998C48.5502 20.9198 48.7202 20.5198 48.8202 19.9998C48.9402 19.4598 49.0002 18.6398 49.0002 17.5398V5.92982C49.0002 5.44981 48.9502 5.05981 48.8502 4.75981C48.7502 4.43981 48.5402 4.19981 48.2202 4.03981C47.9002 3.87981 47.4102 3.79981 46.7502 3.79981C46.7502 3.55981 46.7702 3.32981 46.8102 3.10981C46.8502 2.88981 46.9202 2.68981 47.0202 2.50981C47.4402 2.50981 47.9502 2.45981 48.5502 2.35981C49.1502 2.25981 49.7102 2.12981 50.2302 1.96981C50.7702 1.80981 51.1702 1.64981 51.4302 1.48982C51.6302 1.56981 51.8002 1.70981 51.9402 1.90982C52.0802 2.10982 52.1502 2.40981 52.1502 2.80981V10.2198C52.1502 10.6398 52.1302 10.9898 52.0902 11.2698C52.0502 11.5298 52.0102 11.7898 51.9702 12.0498L51.7902 14.5698L51.1902 13.4298C51.4702 12.7498 51.7202 12.2298 51.9402 11.8698C52.1602 11.4898 52.3402 11.2198 52.4802 11.0598C52.6602 10.7598 52.9402 10.4498 53.3202 10.1298C53.7202 9.80982 54.1902 9.53981 54.7302 9.31981C55.2902 9.09982 55.8902 8.98981 56.5302 8.98981C57.7102 8.98981 58.7202 9.21981 59.5602 9.67981C60.4202 10.1398 61.0802 10.8598 61.5402 11.8398C62.0002 12.7998 62.2302 14.0398 62.2302 15.5598C62.2302 16.9998 61.9102 18.2998 61.2702 19.4598C60.6502 20.6198 59.7602 21.5498 58.6002 22.2498C57.4602 22.9298 56.1102 23.2698 54.5502 23.2698Z" fill="#121B37"/>
<path d="M69.7445 23.2698C68.3245 23.2698 67.0845 22.9798 66.0245 22.3998C64.9845 21.7998 64.1745 20.9698 63.5945 19.9098C63.0345 18.8498 62.7545 17.5998 62.7545 16.1598C62.7545 14.7598 63.0545 13.5198 63.6545 12.4398C64.2745 11.3598 65.1145 10.5198 66.1745 9.91982C67.2345 9.29982 68.4345 8.98981 69.7745 8.98981C71.2745 8.98981 72.5445 9.28982 73.5845 9.88982C74.6245 10.4898 75.4145 11.3198 75.9545 12.3798C76.4945 13.4398 76.7645 14.6798 76.7645 16.0998C76.7645 17.4798 76.4744 18.7198 75.8945 19.8198C75.3145 20.8998 74.4945 21.7498 73.4345 22.3698C72.3945 22.9698 71.1645 23.2698 69.7445 23.2698ZM70.0445 21.6798C71.1645 21.6798 71.9945 21.2098 72.5345 20.2698C73.0745 19.3098 73.3445 18.0698 73.3445 16.5498C73.3445 15.3098 73.1645 14.2398 72.8045 13.3398C72.4645 12.4198 71.9945 11.7298 71.3945 11.2698C70.8145 10.7898 70.1745 10.5498 69.4745 10.5498C68.3745 10.5498 67.5545 11.0098 67.0145 11.9298C66.4745 12.8498 66.2045 14.0298 66.2045 15.4698C66.2045 16.7498 66.3545 17.8598 66.6545 18.7998C66.9745 19.7398 67.4245 20.4598 68.0045 20.9598C68.5845 21.4398 69.2645 21.6798 70.0445 21.6798Z" fill="#121B37"/>
<path d="M77.1249 30.3498C77.1249 30.0298 77.1349 29.7498 77.1549 29.5098C77.1749 29.2698 77.2249 29.0698 77.3049 28.9098C77.8449 28.8698 78.2549 28.7698 78.5349 28.6098C78.8349 28.4498 79.0449 28.1798 79.1649 27.7998C79.2849 27.4198 79.3449 26.8798 79.3449 26.1798V13.5198C79.3449 12.9998 79.2949 12.5898 79.1949 12.2898C79.1149 11.9698 78.9149 11.7298 78.5949 11.5698C78.2749 11.4098 77.7849 11.3198 77.1249 11.2998C77.1249 11.0598 77.1449 10.8298 77.1849 10.6098C77.2249 10.3898 77.2949 10.1898 77.3949 10.0098C78.1549 9.96981 78.9649 9.84981 79.8249 9.64981C80.6849 9.44981 81.3449 9.22981 81.8049 8.98981C82.0049 9.06981 82.1749 9.20981 82.3149 9.40981C82.4549 9.60981 82.5249 9.93981 82.5249 10.3998C82.5249 10.7998 82.4549 11.1998 82.3149 11.5998C82.1949 11.9998 82.0349 12.5098 81.8349 13.1298L82.5249 13.7298V25.6098C82.5249 26.4698 82.6149 27.1298 82.7949 27.5898C82.9749 28.0498 83.2649 28.3698 83.6649 28.5498C84.0849 28.7298 84.6249 28.8498 85.2849 28.9098C85.3449 29.0898 85.3849 29.2998 85.4049 29.5398C85.4449 29.7798 85.4649 30.0498 85.4649 30.3498C85.1449 30.3298 84.7649 30.3098 84.3249 30.2898C83.8849 30.2898 83.4149 30.2798 82.9149 30.2598C82.4149 30.2598 81.9149 30.2598 81.4149 30.2598C80.6549 30.2598 79.8649 30.2598 79.0449 30.2598C78.2249 30.2798 77.5849 30.3098 77.1249 30.3498ZM84.9249 23.2698C84.3849 23.2698 83.9049 23.2198 83.4849 23.1198C83.0849 23.0398 82.6349 22.9198 82.1349 22.7598V20.3298C82.5149 20.7498 82.9249 21.0998 83.3649 21.3798C83.8249 21.6398 84.3849 21.7698 85.0449 21.7698C85.4449 21.7698 85.8749 21.6898 86.3349 21.5298C86.8149 21.3698 87.2749 21.0898 87.7149 20.6898C88.1549 20.2698 88.5149 19.6898 88.7949 18.9498C89.0749 18.1898 89.2149 17.2098 89.2149 16.0098C89.2149 15.0298 89.0749 14.1698 88.7949 13.4298C88.5349 12.6698 88.1649 12.0798 87.6849 11.6598C87.2049 11.2398 86.6449 11.0298 86.0049 11.0298C85.4449 11.0298 84.8949 11.2098 84.3549 11.5698C83.8149 11.9298 83.3749 12.5198 83.0349 13.3398C82.6949 14.1398 82.5249 15.2198 82.5249 16.5798L81.5649 13.4298C81.8449 12.7498 82.0849 12.2298 82.2849 11.8698C82.5049 11.4898 82.6949 11.2198 82.8549 11.0598C83.0349 10.7598 83.3149 10.4498 83.6949 10.1298C84.0949 9.80982 84.5649 9.53981 85.1049 9.31981C85.6649 9.09982 86.2649 8.98981 86.9049 8.98981C88.0849 8.98981 89.0949 9.21981 89.9349 9.67981C90.7749 10.1198 91.4249 10.8098 91.8849 11.7498C92.3649 12.6898 92.6049 13.8798 92.6049 15.3198C92.6049 16.8398 92.2849 18.1998 91.6449 19.3998C91.0049 20.5998 90.1049 21.5498 88.9449 22.2498C87.8049 22.9298 86.4649 23.2698 84.9249 23.2698Z" fill="#121B37"/>
<path d="M92.9323 30.3498C92.9323 30.0298 92.9423 29.7498 92.9623 29.5098C92.9823 29.2698 93.0323 29.0698 93.1123 28.9098C93.6523 28.8698 94.0623 28.7698 94.3423 28.6098C94.6423 28.4498 94.8523 28.1798 94.9723 27.7998C95.0923 27.4198 95.1523 26.8798 95.1523 26.1798V13.5198C95.1523 12.9998 95.1023 12.5898 95.0023 12.2898C94.9223 11.9698 94.7223 11.7298 94.4023 11.5698C94.0823 11.4098 93.5923 11.3198 92.9323 11.2998C92.9323 11.0598 92.9523 10.8298 92.9923 10.6098C93.0323 10.3898 93.1023 10.1898 93.2023 10.0098C93.9623 9.96981 94.7723 9.84981 95.6323 9.64981C96.4923 9.44981 97.1523 9.22981 97.6123 8.98981C97.8123 9.06981 97.9823 9.20981 98.1223 9.40981C98.2623 9.60981 98.3323 9.93981 98.3323 10.3998C98.3323 10.7998 98.2623 11.1998 98.1223 11.5998C98.0023 11.9998 97.8423 12.5098 97.6423 13.1298L98.3323 13.7298V25.6098C98.3323 26.4698 98.4223 27.1298 98.6023 27.5898C98.7823 28.0498 99.0723 28.3698 99.4723 28.5498C99.8923 28.7298 100.432 28.8498 101.092 28.9098C101.152 29.0898 101.192 29.2998 101.212 29.5398C101.252 29.7798 101.272 30.0498 101.272 30.3498C100.952 30.3298 100.572 30.3098 100.132 30.2898C99.6923 30.2898 99.2223 30.2798 98.7223 30.2598C98.2223 30.2598 97.7223 30.2598 97.2223 30.2598C96.4623 30.2598 95.6723 30.2598 94.8523 30.2598C94.0323 30.2798 93.3923 30.3098 92.9323 30.3498ZM100.732 23.2698C100.192 23.2698 99.7123 23.2198 99.2923 23.1198C98.8923 23.0398 98.4423 22.9198 97.9423 22.7598V20.3298C98.3223 20.7498 98.7323 21.0998 99.1723 21.3798C99.6323 21.6398 100.192 21.7698 100.852 21.7698C101.252 21.7698 101.682 21.6898 102.142 21.5298C102.622 21.3698 103.082 21.0898 103.522 20.6898C103.962 20.2698 104.322 19.6898 104.602 18.9498C104.882 18.1898 105.022 17.2098 105.022 16.0098C105.022 15.0298 104.882 14.1698 104.602 13.4298C104.342 12.6698 103.972 12.0798 103.492 11.6598C103.012 11.2398 102.452 11.0298 101.812 11.0298C101.252 11.0298 100.702 11.2098 100.162 11.5698C99.6223 11.9298 99.1823 12.5198 98.8423 13.3398C98.5023 14.1398 98.3323 15.2198 98.3323 16.5798L97.3723 13.4298C97.6523 12.7498 97.8923 12.2298 98.0923 11.8698C98.3123 11.4898 98.5023 11.2198 98.6623 11.0598C98.8423 10.7598 99.1223 10.4498 99.5023 10.1298C99.9023 9.80982 100.372 9.53981 100.912 9.31981C101.472 9.09982 102.072 8.98981 102.712 8.98981C103.892 8.98981 104.902 9.21981 105.742 9.67981C106.582 10.1198 107.232 10.8098 107.692 11.7498C108.172 12.6898 108.412 13.8798 108.412 15.3198C108.412 16.8398 108.092 18.1998 107.452 19.3998C106.812 20.5998 105.912 21.5498 104.752 22.2498C103.612 22.9298 102.272 23.2698 100.732 23.2698Z" fill="#121B37"/>
<path d="M115.518 23.2698C114.018 23.2698 112.778 22.9498 111.798 22.3098C110.838 21.6698 110.108 20.8098 109.608 19.7298C109.128 18.6498 108.888 17.4598 108.888 16.1598C108.888 14.8398 109.148 13.6398 109.668 12.5598C110.188 11.4798 110.928 10.6198 111.888 9.97981C112.868 9.31981 114.018 8.98981 115.338 8.98981C116.678 8.98981 117.758 9.26981 118.578 9.82981C119.398 10.3898 120.008 11.1398 120.408 12.0798C120.828 13.0198 121.068 14.0798 121.128 15.2598C121.048 15.7198 120.878 16.0998 120.618 16.3998C120.218 16.3998 119.668 16.3998 118.968 16.3998C118.288 16.3998 117.518 16.4098 116.658 16.4298C115.818 16.4298 114.948 16.4498 114.048 16.4898C113.168 16.5098 112.338 16.5398 111.558 16.5798V14.9298H117.738C117.738 13.6098 117.508 12.5498 117.048 11.7498C116.608 10.9498 115.968 10.5498 115.128 10.5498C114.648 10.5498 114.188 10.6998 113.748 10.9998C113.308 11.2998 112.948 11.8098 112.668 12.5298C112.388 13.2298 112.248 14.2098 112.248 15.4698C112.248 16.4698 112.378 17.4298 112.638 18.3498C112.898 19.2498 113.338 19.9898 113.958 20.5698C114.578 21.1298 115.458 21.4098 116.598 21.4098C117.258 21.4098 117.908 21.2698 118.548 20.9898C119.208 20.7098 119.788 20.3098 120.288 19.7898C120.448 19.8698 120.598 20.0198 120.738 20.2398C120.898 20.4598 120.988 20.6698 121.008 20.8698C120.308 21.7298 119.498 22.3498 118.578 22.7298C117.678 23.0898 116.658 23.2698 115.518 23.2698Z" fill="#121B37"/>
<path d="M126.988 18.3498C126.988 19.2098 127.078 19.8698 127.258 20.3298C127.438 20.7898 127.728 21.1098 128.128 21.2898C128.548 21.4698 129.088 21.5898 129.748 21.6498C129.808 21.8298 129.848 22.0398 129.868 22.2798C129.908 22.5198 129.928 22.7898 129.928 23.0898C129.608 23.0698 129.228 23.0498 128.788 23.0298C128.348 23.0298 127.878 23.0198 127.378 22.9998C126.878 22.9998 126.378 22.9998 125.878 22.9998C125.118 22.9998 124.328 22.9998 123.508 22.9998C122.688 23.0198 122.048 23.0498 121.588 23.0898C121.588 22.7698 121.598 22.4898 121.618 22.2498C121.638 22.0098 121.688 21.8098 121.768 21.6498C122.308 21.6098 122.718 21.5098 122.998 21.3498C123.298 21.1898 123.508 20.9198 123.628 20.5398C123.748 20.1598 123.808 19.6198 123.808 18.9198V16.1898H126.988V18.3498ZM126.988 14.2098V16.6398H123.808V13.3098L126.988 10.3998C126.988 11.0198 126.928 11.5998 126.808 12.1398C126.688 12.6798 126.568 13.2398 126.448 13.8198L126.988 14.2098ZM126.328 13.9998C126.528 13.4598 126.688 12.9998 126.808 12.6198C126.948 12.2198 127.088 11.8998 127.228 11.6598C127.668 10.9598 128.188 10.3798 128.788 9.91982C129.408 9.45982 130.118 9.22981 130.918 9.22981C131.678 9.22981 132.368 9.46982 132.988 9.94981C132.948 10.2898 132.908 10.6898 132.868 11.1498C132.828 11.5898 132.798 12.0398 132.778 12.4998C132.778 12.9398 132.778 13.3498 132.778 13.7298C132.558 13.8098 132.268 13.8798 131.908 13.9398C131.548 13.9998 131.188 14.0298 130.828 14.0298C130.788 13.1298 130.638 12.5298 130.378 12.2298C130.138 11.9098 129.818 11.7498 129.418 11.7498C129.098 11.7498 128.738 11.9398 128.338 12.3198C127.958 12.6998 127.638 13.1998 127.378 13.8198C127.118 14.4398 126.988 15.1198 126.988 15.8598L126.328 13.9998ZM123.808 16.6398V13.5198C123.808 12.9998 123.758 12.5898 123.658 12.2898C123.578 11.9698 123.378 11.7298 123.058 11.5698C122.738 11.4098 122.248 11.3198 121.588 11.2998C121.588 11.0598 121.608 10.8298 121.648 10.6098C121.688 10.3898 121.758 10.1898 121.858 10.0098C122.618 9.96981 123.428 9.84981 124.288 9.64981C125.148 9.44981 125.808 9.22981 126.268 8.98981C126.468 9.06981 126.638 9.20981 126.778 9.40981C126.918 9.60981 126.988 9.93981 126.988 10.3998L123.808 16.6398Z" fill="#121B37"/>
<path d="M137.398 9.80832C137.574 9.93262 137.785 9.99922 138 9.99882C138.216 9.99902 138.427 9.93152 138.602 9.80582C138.78 9.67532 138.915 9.49502 138.989 9.28782L139.436 7.91482C139.551 7.57052 139.744 7.25762 140 7.00092C140.257 6.74418 140.569 6.55071 140.913 6.43582L142.304 5.98481C142.456 5.93046 142.594 5.84166 142.705 5.72537C142.817 5.60908 142.901 5.46847 142.949 5.31455C142.998 5.16062 143.01 4.99758 142.985 4.83818C142.96 4.67879 142.898 4.52738 142.804 4.39582C142.67 4.20989 142.479 4.07265 142.26 4.00482L140.885 3.55782C140.541 3.44359 140.228 3.25062 139.971 2.99423C139.714 2.73785 139.52 2.4251 139.405 2.08082L138.953 0.692816C138.881 0.490506 138.748 0.315746 138.571 0.192816C138.439 0.0990856 138.286 0.0376054 138.125 0.0132554C137.965 -0.0110846 137.801 0.00237564 137.646 0.0525656C137.492 0.102766 137.351 0.188315 137.236 0.302415C137.12 0.416505 137.033 0.556006 136.98 0.709816L136.523 2.10982C136.409 2.44464 136.22 2.74905 135.97 3.00007C135.721 3.25108 135.418 3.44214 135.083 3.55882L133.692 4.00682C133.541 4.06121 133.404 4.14999 133.292 4.2662C133.18 4.38242 133.097 4.52292 133.048 4.6767C133 4.83049 132.988 4.99339 133.013 5.15267C133.038 5.31195 133.099 5.46328 133.192 5.59482C133.32 5.77427 133.501 5.90924 133.709 5.98082L135.083 6.42581C135.524 6.5723 135.91 6.84664 136.193 7.21382C136.356 7.42442 136.481 7.66112 136.564 7.91382L137.016 9.30482C137.088 9.50812 137.222 9.68402 137.398 9.80832Z" fill="#121B37"/>
</svg>
