<svg fill="none" height="28" viewBox="0 0 146 28" width="146" xmlns="http://www.w3.org/2000/svg" xmlns:xlink="http://www.w3.org/1999/xlink"><clipPath id="a"><path d="m0 0h146v28h-146z"/></clipPath><g clip-path="url(#a)" fill="#131b37"><path d="m75.7471 20.1958c-.488 0-.8645-.1776-1.1411-.5251-.2728-.3476-.4073-.8689-.4073-1.5717 0-.7375.1652-1.3168.4918-1.7415.3266-.4248.7915-.7723 1.3793-1.0311.5917-.2625 1.2717-.5097 2.0401-.7375v4.4871c-.3919.3668-.7569.6371-1.0835.8032-.4034.2085-.8298.3089-1.2832.3089h.0039zm5.7668-2.147v-5.6378c0-1.5253-.4111-2.64131-1.241-3.34025-.8298-.69894-2.0823-1.04648-3.7728-1.04648-1.0527 0-1.9633.1506-2.747.4518-.78.30506-1.3793.69122-1.8019 1.16232-.4265.47111-.634.98851-.634 1.55621 0 .5676.1653.9885.4918 1.2743.3266.2819.6724.4248 1.0258.4248.4495 0 .8337-.1313 1.1565-.3939.3189-.2626.4764-.6796.4764-1.2473 0-.807.1037-1.35924.3073-1.65658.2075-.28962.6378-.43636 1.2986-.43636.7339 0 1.2525.20853 1.5637.62171.3112.41323.4649 1.23573.4649 2.46363v1.3052c-.5071.1506-1.0834.309-1.7327.4789s-1.3063.3745-1.971.6217c-.6685.2471-1.2794.5483-1.8326.9036-.5533.3552-.9989.8032-1.3409 1.3322-.3342.529-.5071 1.1816-.5071 1.9501 0 1.058.3112 1.8612.9413 2.4057.6301.5483 1.4676.8187 2.5165.8187.6378 0 1.168-.0773 1.5906-.2279s.8183-.3668 1.1987-.6526c.3726-.2819.7799-.614 1.2102-.9885h.1422v1.6064h3.5039s-.3266-3.6917-.3228-3.7534h.0077z"/><path d="m107.155 19.4197c-.545.8379-1.229 1.2588-2.055 1.2588-.43 0-.811-.0888-1.126-.2664-.319-.1815-.591-.3939-.814-.6526-.227-.2587-.411-.475-.565-.6642v-7.1593c.284-.3205.661-.6526 1.141-.9885.476-.336 1.037-.5098 1.675-.5098.822 0 1.456.3707 1.898 1.1199.442.7453.661 1.9539.661 3.6337 0 1.981-.273 3.3904-.818 4.2284zm3.958-8.534c-.385-.94224-.919-1.65663-1.606-2.13546-.688-.47883-1.487-.7221-2.409-.7221s-1.691.21238-2.367.63715-1.372 1.01172-2.082 1.76861h-.116v-2.45596l-5.3207.92676 1.9709 1.7763v17.3229h5.2638l-1.86-1.9617v-4.7149h.085c.43.2857.876.4788 1.341.5946.461.1159.952.17 1.475.17 1.145 0 2.186-.309 3.123-.9191.938-.614 1.687-1.4944 2.24-2.6451.554-1.1508.83-2.5255.83-4.128 0-1.394-.196-2.5641-.576-3.5102h.008z"/><path d="m92.2138 19.4197c-.5455.8379-1.2294 1.2588-2.0554 1.2588-.4303 0-.8107-.0888-1.1257-.2664-.3189-.1815-.5917-.3939-.8145-.6526-.2267-.2587-.4111-.475-.5648-.6642v-7.1593c.2843-.3205.6608-.6526 1.1411-.9885.4764-.336 1.0373-.5098 1.6751-.5098.8221 0 1.4561.3707 1.8979 1.1199.4418.7453.6608 1.9539.6608 3.6337 0 1.981-.2728 3.3904-.8183 4.2284zm3.9573-8.534c-.3842-.94224-.9183-1.65663-1.606-2.13546s-1.4868-.7221-2.4089-.7221-1.6905.21238-2.3667.63715-1.3716 1.01172-2.0823 1.76861h-.1153v-2.45596l-5.3211.92676 1.9709 1.7763v17.3229h5.2635l-1.8595-1.9617v-4.7149h.0845c.4303.2857.876.4788 1.3409.5946.461.1159.9528.17 1.4753.17 1.1449 0 2.1861-.309 3.1235-.9191.9375-.614 1.6867-1.4944 2.2399-2.6451.5533-1.1508.8299-2.5255.8299-4.128 0-1.394-.196-2.5641-.5763-3.5102h.0077z"/><path d="m142.609 3.40587c-.242-1.21252-.761-2.38256-1.567-3.40587-.811 1.01945-1.326 2.18949-1.568 3.40587-1.206.24328-2.37.76459-3.389 1.57551 1.015.81479 2.179 1.33223 3.389 1.57551.242 1.21252.761 2.38257 1.568 3.40587.81-1.01944 1.325-2.18949 1.567-3.40587 1.207-.24328 2.371-.76459 3.389-1.57551-1.015-.81478-2.179-1.33223-3.389-1.57551z"/><path d="m26.7578 18.7787c-.4726.3243-.9106.5753-1.3063.7568s-.8913.2703-1.4753.2703c-.926 0-1.6252-.4132-2.0862-1.2434-.4611-.8302-.6954-2.1663-.6954-4.0121 0-1.7493.2651-3.0391.7953-3.8693.5302-.82636 1.2409-1.2434 2.1284-1.2434.8145 0 1.4292.22783 1.8442.6835.4149.4556.68.9615.7953 1.5137v7.1361zm3.4385-.1429v-16.65869l-5.3826.47497 1.9441 2.11226v4.04689h-.0846c-.4533-.22783-.9105-.39388-1.3639-.49814-.4533-.10426-.9105-.15832-1.3639-.15832-1.191 0-2.2783.27417-3.2503.82636-.972.5522-1.7558 1.38627-2.3436 2.49837-.5878 1.1122-.8798 2.5178-.8798 4.2091 0 1.2164.1806 2.3208.5379 3.3094.3611.9885.9028 1.7801 1.6328 2.3709.73.5909 1.6252.8843 2.6856.8843.9451 0 1.7826-.2123 2.5126-.641.73-.4286 1.3601-.8804 1.8903-1.3554h.1152v1.7416h3.5155l-.1653-3.1703z"/><path d="m45.2263 18.2071v-10.22917l-5.8206.57923 2.3859 2.26284v7.3833c-.5495.4556-1.0412.807-1.4754 1.058-.4341.2472-.9835.3708-1.6482.3708-.4149 0-.7953-.0811-1.1372-.2433-.342-.1622-.5994-.4789-.7799-.9577-.1806-.475-.269-1.1816-.269-2.1122v-8.34483l-5.3941.57923 1.9594 2.3517v6.0703c0 1.9231.3342 3.2553 1.0066 3.9967.6723.7414 1.6789 1.1121 3.0236 1.1121.6263 0 1.1834-.0849 1.6751-.2587.4918-.1699.9797-.4441 1.4638-.8148s1.0066-.8534 1.5753-1.4403h.1421v2.2281h3.4655l-.1652-3.5951h-.0039z"/><path d="m68.5894 19.7016v-6.4874c0-1.8265-.3688-3.1588-1.1065-3.99671-.7376-.83796-1.7404-1.255-3.0121-1.255-.8721 0-1.6866.23169-2.4435.69893-.7569.46725-1.5061 1.06965-2.2437 1.81108h-.1307c-.2382-.65261-.5839-1.19709-1.045-1.62572-.6339-.59082-1.5022-.88429-2.5972-.88429-.9835 0-1.8172.24713-2.5011.74141-.68.49428-1.3639 1.05806-2.0439 1.6836h-.1422v-2.40571l-5.2827.89588 1.9325 1.80723v8.0397c0 .251-.0077.4788-.0269.6796v2.4019h5.2443l-1.7788-2.1045v-7.8544c.2113-.2085.4418-.4093.68-.5908.3419-.2587.7069-.4711 1.095-.641.388-.1699.7991-.2588 1.2371-.2588.6608 0 1.1872.2279 1.5752.6835.3881.4557.584 1.3323.584 2.6259v4.908c0 .3707-.0192.6796-.0461.9461v2.2783h5.3019l-1.8172-2.1046v-7.1168c0-.2278-.0154-.4556-.0423-.6835 0-.0154-.0038-.027-.0038-.0424.365-.3476.7684-.6758 1.2256-.9693.5571-.3514 1.141-.529 1.7481-.529.4533 0 .8491.1004 1.1795.3012s.5878.5406.7684 1.0271c.1805.4866.2689 1.1662.2689 2.0428v4.8539c0 .3206-.0154.5986-.0423.8419v2.3825h5.2866l-1.8096-2.1045z"/><path d="m119.089 9.1866c.568 0 1.018.1699 1.348.51358.33.34372.576.81482.738 1.41332.161.5985.242 1.2704.242 2.0119h-4.945c.062-1.1817.25-2.0969.573-2.7417.395-.79937 1.079-1.1971 2.044-1.1971zm5.593 8.1633c-.303.3823-.637.7221-1.006 1.0272-.369.305-.803.5483-1.306.7259-.504.1777-1.13.2703-1.891.2703-.814 0-1.525-.1815-2.128-.5406-.607-.363-1.076-.9306-1.406-1.7145-.3-.7105-.461-1.6257-.488-2.7417h8.767c-.038-2.093-.576-3.6878-1.617-4.78058-1.041-1.09282-2.413-1.64115-4.119-1.64115-1.176 0-2.259.25872-3.25.7723-.991.51359-1.783 1.29363-2.371 2.34013-.588 1.0464-.88 2.3864-.88 4.0237 0 1.5021.258 2.7764.769 3.8268.511 1.0464 1.237 1.8419 2.171 2.3825.937.5406 2.059.8148 3.365.8148.926 0 1.718-.1236 2.371-.3707s1.198-.5715 1.632-.9692c.435-.3978.819-.8573 1.149-1.3709.331-.5136.638-1.0465.922-1.5987l-.68-.4556z"/><path d="m13.161 20.0761c-.6262.1043-2.3859.1583-3.38862.1583h-3.46548v-7.3639h2.83923c.91057 0 1.58677.0541 2.03237.1583l2.2591 2.4675v-6.59546l-2.2591 2.39806c-.4456.1158-1.1218.1699-2.03237.1699h-2.83923v-6.81951h6.3508l3.1043 3.39815-.169-4.99683h-15.59080273l2.69707273 3.23597v12.00942c0 .2394-.00768.444-.02689.6371v2.873h13.20492l.7377-5.5104z"/><path d="m135.867 8.53014c-.327-.36685-.823-.5522-1.476-.5522-.545 0-.999.1197-1.364.3514-.365.23941-.718.58695-1.056 1.04647-.335.46339-.761 1.03099-1.268 1.71449h-.085v-3.11236l-5.432.89587 2.082 1.80719v11.1058h5.237l-1.817-2.0891-.008-7.1091c.319-.4518.653-.8418.999-1.1739.346-.3282.68-.4943.999-.4943.13 0 .288.0966.476.2819.188.1892.415.3707.692.5522.269.1815.595.2703.972.2703.392 0 .753-.1583 1.068-.4672.319-.3089.476-.8225.476-1.5408 0-.62168-.165-1.11982-.492-1.4828z"/></g></svg>